<svg width="32" height="32" viewBox="0 0 40 40" fill="none" xmlns="http://www.w3.org/2000/svg">
    <path d="M20 5C11.7157 5 5 11.268 5 19C5 22.8437 6.64966 26.2974 9.32843 28.7512C9.07921 30.6433 8.35626 32.7483 7.12656 34.502C6.90795 34.8143 7.16599 35.2335 7.54016 35.1585C11.0568 34.4533 13.8824 33.3106 15.6569 32.2285C17.0375 32.7301 18.4907 33 20 33C28.2843 33 35 26.732 35 19C35 11.268 28.2843 5 20 5Z" fill="white"/>
    <path d="M20 12C16.134 12 13 15.134 13 19C13 22.866 16.134 26 20 26C21.933 26 23.683 25.2165 24.9497 23.9497C26.2165 22.683 27 20.933 27 19C27 15.134 23.866 12 20 12Z" fill="#050505"/>
    <path d="M18 19.5L20 21.5L24 17.5" stroke="white" stroke-width="2" stroke-linecap="round" stroke-linejoin="round"/>
</svg>
